<svg xmlns="http://www.w3.org/2000/svg" width="55.983" height="34.99" viewBox="0 0 55.983 34.99"><defs><style>.a{fill:#0078a9;}.b{fill:#fff;}</style></defs><path class="a" d="M55.983,33.123a1.866,1.866,0,0,1-1.867,1.866H1.866A1.866,1.866,0,0,1,0,33.123V1.865A1.866,1.866,0,0,1,1.866,0H54.117a1.866,1.866,0,0,1,1.866,1.865Z"/><path class="b" d="M25.078,28.639v-.56l-.268.56H22.492l-.291-.6v.6H17.868l-.512-1.212h-.868l-.542,1.212H13.7V24.981l1.646-3.726H18.5l.443,1.056V21.263H22.8l.848,1.777.829-1.785H36.649a2.076,2.076,0,0,1,1.058.287l0-.287h3.067v.4a2.5,2.5,0,0,1,1.367-.4H47.55l.475,1.072V21.255h3.468l.63,1.072V21.255h3.315v7.391H52.032l-.8-1.288v1.281H47l-.595-1.32h-.83l-.558,1.32H42.453a3.311,3.311,0,0,1-1.672-.525v.525h-5.1V26.915c0-.25-.192-.233-.192-.233H35.3V28.64H25.078Zm-2.545,1.6h6.7l.968,1.1.989-1.1h5.152a2.366,2.366,0,0,1,.944.258v-.258h4.588a2.338,2.338,0,0,1,1.072.291v-.291h5.9v.269a2,2,0,0,1,.985-.269h3.843v.269a2.348,2.348,0,0,1,1-.269h3.017V37.2a1.663,1.663,0,0,1-1.217.449H52.49v-.221a2.04,2.04,0,0,1-.955.221H40.968v-1.8c0-.177-.077-.209-.234-.209H40.59v2.009h-3.3v-2a2.225,2.225,0,0,1-.978.2H35.122v1.8H31.05l-.925-1.13-.991,1.13h-6.6V30.239Z" transform="translate(-7.708 -11.959)"/><path class="a" d="M43.667,32.7h4.206v1.128H44.955v.983h2.836v.994H44.954V36.84h2.919v1.1H43.667M56,34.742c1.58.08,1.713.87,1.713,1.713a1.531,1.531,0,0,1-1.649,1.509h-2.7V36.84h2.105c.357,0,.889,0,.889-.5,0-.239-.094-.392-.474-.432-.169-.024-.794-.059-.889-.061-1.428-.037-1.76-.748-1.76-1.613a1.445,1.445,0,0,1,1.533-1.52h2.7v1.123H55.49c-.45,0-.936-.052-.936.455,0,.322.24.387.544.416.1,0,.807.038.9.037Zm-4.844,0c1.581.08,1.714.87,1.714,1.713a1.53,1.53,0,0,1-1.649,1.509h-2.7V36.84h2.105c.356,0,.889,0,.889-.5,0-.239-.094-.392-.474-.432-.169-.024-.8-.059-.888-.061-1.43-.037-1.76-.748-1.76-1.613a1.444,1.444,0,0,1,1.532-1.52h2.7v1.123H50.645c-.45,0-.936-.052-.936.455,0,.322.241.387.545.416.1,0,.807.038.9.037ZM35.9,32.711H31.386l-1.474,1.626L28.485,32.7h-5.07v5.24h4.906l1.544-1.731,1.509,1.744h2.469v-1.78h1.73c.667,0,1.884-.023,1.884-1.86a1.451,1.451,0,0,0-1.556-1.6ZM27.649,36.84H24.683V35.806H27.52v-.994H24.683v-.983l3.129.007,1.252,1.426L27.65,36.841Zm4.917.608-1.848-2.187,1.848-2.047Zm2.9-2.354h-1.6V33.837h1.608a.634.634,0,1,1-.005,1.258Zm6.648.472A1.431,1.431,0,0,0,43,34.115a1.383,1.383,0,0,0-1.544-1.4H38.116v5.24H39.4V36.1h1.684c.445,0,.62.444.631.889l.034.96h1.253l-.047-1.077c0-.843-.233-1.24-.842-1.31ZM41,35.024H39.4V33.836H41.01a.617.617,0,0,1,.708.6c0,.351-.186.586-.713.586Zm-2.374-11.37h1.287V28.9H38.631ZM28.1,23.661h4.2v1.128H29.386v.983h2.835v.994H29.387V27.8H32.3v1.1H28.1m8.968-2.386a1.43,1.43,0,0,0,.889-1.45,1.383,1.383,0,0,0-1.544-1.4H33.068V28.9h1.287V27.051h1.684c.445,0,.621.444.632.888l.035.96h1.252l-.046-1.077c0-.841-.235-1.239-.843-1.309Zm-1.112-.542h-1.6V24.784h1.609a.618.618,0,0,1,.708.6c0,.351-.188.585-.714.585Zm-10.825-2.31-1.579,3.514-1.573-3.515H19.963v5.046l-2.247-5.045h-1.7L13.721,28.9h1.357l.5-1.17h2.567l.51,1.17h2.59V25.01l1.72,3.89h1.17l1.76-3.826V28.9h1.286V23.661H25.132ZM16.067,26.6l.768-1.832.8,1.832H16.068Zm37.126-2.942v3.628l-2.169-3.628h-1.9v4.92L46.93,23.661h-1.7L43.456,27.72s-.749,0-.825-.019c-.309-.064-.794-.283-.8-1.207v-.38c0-1.229.667-1.319,1.522-1.319h.794V23.657H42.468c-.586,0-1.859.446-1.9,2.6-.03,1.451.6,2.647,2.029,2.647h1.7l.5-1.17h2.567l.509,1.17h2.538V25.065L52.725,28.9h1.755V23.658H53.194Zm-7.9,2.945.766-1.832.807,1.832Z" transform="translate(-7.72 -13.308)"/></svg>