<svg xmlns="http://www.w3.org/2000/svg" width="55.983" height="34.99" viewBox="0 0 55.983 34.99"><defs><style>.a{fill:#084e94;}.b{fill:#fff;}</style></defs><path class="a" d="M55.983,33.123a1.866,1.866,0,0,1-1.867,1.867H1.866A1.866,1.866,0,0,1,0,33.123V1.866A1.865,1.865,0,0,1,1.866,0H54.117a1.865,1.865,0,0,1,1.866,1.866V33.123Z"/><path class="b" d="M56.052,28.747A6.013,6.013,0,0,0,62.1,23.011a5.908,5.908,0,0,0-6.051-5.836H53.329a5.707,5.707,0,0,0-5.835,5.836,5.8,5.8,0,0,0,5.835,5.736h2.723Z" transform="translate(-26.722 -9.663)"/><path class="a" d="M55.253,26.7V20.432a3.356,3.356,0,0,1,0,6.268m-4.559-3.134a3.364,3.364,0,0,1,2.154-3.135V26.7a3.364,3.364,0,0,1-2.155-3.133m3.357-5.3a5.3,5.3,0,1,0,5.3,5.3,5.3,5.3,0,0,0-5.3-5.3" transform="translate(-27.431 -10.278)"/><g transform="translate(13.67 19.08)"><path class="b" d="M32.457,47.578c0,.471.338.526.637.526A1.706,1.706,0,0,0,34.85,46.2a1.839,1.839,0,0,0-1.916-1.97c-.251,0-.367.017-.478.024v3.328Zm-.6-2.869c0-.551-.287-.514-.563-.52v-.16c.239.012.483.012.723.012.256,0,.6-.012,1.058-.012a2.229,2.229,0,0,1,2.447,2.142c0,.6-.354,2.129-2.519,2.129-.313,0-.6-.012-.888-.012s-.545.007-.82.012v-.159c.367-.037.545-.048.563-.465V44.709Zm4.534-.147a.3.3,0,0,1,0-.6.3.3,0,0,1,.3.295.306.306,0,0,1-.3.305m-.654,3.579h.116c.172,0,.294,0,.294-.2V46.281c0-.269-.092-.306-.319-.429v-.1c.287-.086.63-.2.655-.22a.208.208,0,0,1,.109-.032c.031,0,.044.037.044.086v2.349c0,.2.134.2.305.2h.1V48.3c-.209,0-.423-.012-.643-.012s-.442.007-.667.012v-.158Zm1.889-1.824c0-.226-.068-.286-.354-.4V45.8a7.9,7.9,0,0,0,.807-.293c.019,0,.036.013.036.061v.4a1.8,1.8,0,0,1,1.06-.459c.52,0,.7.379.7.857v1.578c0,.2.136.2.306.2H40.3V48.3c-.215,0-.429-.012-.649-.012s-.44.007-.66.012v-.159H39.1c.172,0,.294,0,.294-.2V46.354c0-.349-.213-.52-.562-.52a1.634,1.634,0,0,0-.711.295v1.81c0,.2.136.2.307.2h.109V48.3c-.213,0-.427-.012-.648-.012s-.44.007-.66.012v-.159h.111c.171,0,.293,0,.293-.2V46.317Zm4.216.1c.153,0,.171-.08.171-.153a.518.518,0,0,0-.531-.563c-.374,0-.63.276-.7.716h1.064Zm-1.083.2a1.542,1.542,0,0,0,0,.355,1.022,1.022,0,0,0,.9,1.058,1.173,1.173,0,0,0,.827-.409l.086.084a1.433,1.433,0,0,1-1.131.691,1.229,1.229,0,0,1-1.17-1.334c0-1.2.807-1.554,1.236-1.554a.971.971,0,0,1,1.034.961.778.778,0,0,1-.005.11l-.056.036H40.761Zm1.922,1.529h.164c.171,0,.294,0,.294-.2V46.22c0-.19-.226-.227-.318-.276v-.092c.446-.19.691-.35.747-.35.035,0,.054.02.054.081v.551h.013c.153-.239.41-.632.783-.632a.333.333,0,0,1,.349.325.3.3,0,0,1-.287.312c-.19,0-.19-.147-.4-.147a.517.517,0,0,0-.446.508v1.437c0,.2.122.2.294.2h.341V48.3c-.336-.006-.592-.012-.855-.012s-.507.007-.728.012v-.159Zm2.355-.691a.8.8,0,0,0,.771.747.432.432,0,0,0,.5-.435c0-.722-1.333-.489-1.333-1.474a.841.841,0,0,1,.948-.784,1.616,1.616,0,0,1,.7.178l.043.623h-.141a.628.628,0,0,0-.667-.6.429.429,0,0,0-.477.4c0,.716,1.419.5,1.419,1.455,0,.4-.324.832-1.052.832A1.605,1.605,0,0,1,45,48.184l-.067-.7.109-.031Zm7.28-2.314h-.153a1.164,1.164,0,0,0-1.309-1,1.744,1.744,0,0,0-1.726,1.94A2,2,0,0,0,50.953,48.2a1.245,1.245,0,0,0,1.231-1.058l.14.036-.14.893a3.442,3.442,0,0,1-1.353.324,2.177,2.177,0,0,1-2.336-2.3,2.249,2.249,0,0,1,2.318-2.153,4.428,4.428,0,0,1,1.445.324l.061.875Zm.221,3h.116c.172,0,.294,0,.294-.2V44.532c0-.4-.092-.41-.325-.478v-.1a3.809,3.809,0,0,0,.631-.264.6.6,0,0,1,.134-.067c.036,0,.048.037.048.085v4.228c0,.2.136.2.307.2h.1V48.3c-.208,0-.422-.012-.642-.012s-.44.007-.667.012v-.158Zm3.928-.177c0,.111.067.116.171.116.074,0,.165-.005.246-.005V48.2a6.29,6.29,0,0,0-.882.19l-.031-.018v-.5a1.648,1.648,0,0,1-1.083.513.66.66,0,0,1-.674-.727V46.1c0-.158-.023-.312-.366-.342V45.64c.219-.007.709-.043.789-.043s.068.043.068.177v1.579c0,.184,0,.709.532.709a1.368,1.368,0,0,0,.74-.373V46.041c0-.122-.294-.189-.513-.249v-.111c.55-.037.892-.085.953-.085s.05.044.05.111v2.257Zm1.218-.355a.659.659,0,0,0,.63.625c.656,0,.929-.643.929-1.187a1.167,1.167,0,0,0-.978-1.212.941.941,0,0,0-.582.289v1.486Zm0-1.664A1.545,1.545,0,0,1,58.6,45.5a1.192,1.192,0,0,1,1.138,1.285,1.545,1.545,0,0,1-1.462,1.6,1.816,1.816,0,0,1-.851-.213l-.184.14-.128-.066a7.239,7.239,0,0,0,.085-1.089V44.532c0-.4-.092-.41-.324-.478v-.1a3.827,3.827,0,0,0,.63-.264.591.591,0,0,1,.136-.067c.037,0,.048.037.048.085v2.234Zm-26.4,5.913h.047c.119,0,.246-.017.246-.19V49.924c0-.173-.127-.191-.246-.191h-.047v-.1c.131,0,.331.013.494.013s.366-.013.521-.013v.1h-.046c-.119,0-.247.017-.247.191v1.743c0,.173.128.19.247.19H32.3v.1c-.159,0-.359-.014-.526-.014s-.359.013-.49.013v-.1Z" transform="translate(-31.274 -43.625)"/><path class="b" d="M32.272,59.654v-.071H32.24c-.118,0-.261-.02-.262-.2V57.635c0-.184.143-.2.262-.2h.032v-.071c-.154,0-.346.013-.507.013s-.35-.013-.479-.013v.071h.031c.119,0,.261.021.261.2v1.743c0,.185-.141.2-.261.2h-.031v.071c.129,0,.318-.013.475-.013s.355.013.512.013m.014.028c-.16,0-.359-.012-.526-.012s-.358.012-.49.012h-.013v-.128h.059c.122,0,.23-.012.232-.175V57.636c0-.164-.11-.174-.232-.176h-.06v-.13h.013c.133,0,.331.013.494.013s.365-.013.522-.013H32.3v.129h-.06c-.12,0-.232.013-.232.176v1.743c0,.163.112.173.232.175H32.3v.129h-.015Zm2.287-.67.007-.007V57.758a.275.275,0,0,0-.29-.313h-.073v-.1c.156,0,.309.013.466.013.136,0,.273-.013.409-.013v.1h-.049c-.14,0-.3.027-.3.423v1.515a2.2,2.2,0,0,0,.02.337h-.127l-1.714-1.911v1.372c0,.29.057.389.313.389H33.3v.1c-.143,0-.286-.013-.43-.013s-.3.013-.452.013v-.1h.047c.23,0,.3-.156.3-.422v-1.4a.3.3,0,0,0-.3-.3h-.044v-.1c.126,0,.256.013.381.013.1,0,.2-.013.3-.013l1.481,1.668Z" transform="translate(-31.256 -51.336)"/><path class="b" d="M36.036,58.891l0,0,0,0Zm.007.007.011-.01-.01.01Zm.066.691h.111a2.114,2.114,0,0,1-.018-.321V57.753c0-.4.168-.436.311-.436h.035v-.071c-.13,0-.262.013-.394.013-.153,0-.3-.013-.452-.013v.071h.058a.291.291,0,0,1,.3.328L36.059,58.9l-.007.006-.011.01-1.48-1.674c-.1,0-.2.013-.3.013-.121,0-.247-.013-.367-.013v.071h.029a.313.313,0,0,1,.318.313v1.4c0,.267-.074.437-.314.438H33.9v.071c.144,0,.293-.013.437-.013s.278.012.416.013v-.07h-.042c-.262,0-.327-.115-.327-.405V57.655l1.728,1.934Zm.127.029-.137,0-1.69-1.884v1.334c0,.29.048.372.3.375h.071v.129h-.014c-.144,0-.287-.012-.43-.012s-.3.012-.452.012h-.014v-.129h.061c.22,0,.283-.142.286-.408v-1.4a.286.286,0,0,0-.29-.284h-.059v-.129h.015c.127,0,.257.012.382.012.1,0,.2-.012.308-.009l1.464,1.649V57.643c0-.265-.179-.3-.276-.3h-.087v-.128h.014c.157,0,.311.012.466.012.136,0,.272-.012.409-.012h.015v.128h-.065c-.138,0-.278.016-.282.409v1.515a2.372,2.372,0,0,0,.017.333l0,.017h-.017Zm.825-2.221c-.251,0-.262.059-.311.3h-.1c.013-.094.03-.186.041-.283a2.166,2.166,0,0,0,.019-.283h.08c.027.1.109.1.2.1h1.718c.091,0,.174,0,.179-.1l.08.013c-.012.09-.026.179-.036.269s-.006.179-.006.269l-.1.037c-.007-.122-.023-.32-.246-.32h-.545v1.771c0,.257.117.286.276.286h.063v.1c-.129,0-.363-.014-.542-.014-.2,0-.433.013-.562.013v-.1h.063c.184,0,.276-.017.276-.28V57.4h-.547Z" transform="translate(-32.726 -51.222)"/><path class="b" d="M41.931,59.545c-.131,0-.363-.012-.542-.012-.2,0-.432.012-.563.012h-.014v-.129h.078c.184,0,.257-.007.262-.264V57.388H40.62V57.36h.56v1.793c0,.267-.108.293-.291.294h-.048v.07c.131,0,.354-.013.548-.013.174,0,.4.013.528.013v-.07h-.048c-.162,0-.29-.039-.29-.3V57.36h.561c.222,0,.252.191.259.314l.072-.026c0-.087,0-.174.007-.262s.021-.171.034-.255l-.05-.009c-.016.1-.109.1-.193.1H40.532c-.078,0-.163,0-.192-.1h-.055a2.261,2.261,0,0,1-.02.269c-.01.092-.024.179-.037.268h.07c.045-.232.073-.307.322-.3v.028c-.246.005-.241.045-.3.292l0,.011h-.13l0-.017c.013-.094.031-.186.039-.283a1.8,1.8,0,0,0,.021-.28V57.1h.107l0,.01c.023.084.084.084.169.086h1.735c.093,0,.16,0,.166-.09v-.015l.015,0,.094.015,0,.014c-.013.09-.026.179-.037.268s-.006.178-.006.269v.01l-.01,0-.118.042v-.02c-.01-.124-.022-.306-.232-.306h-.532v1.758c0,.25.1.267.262.27h.077v.131h-.014Zm.7-.114h.048c.119,0,.245-.017.245-.19V57.5c0-.173-.126-.191-.245-.191h-.048v-.1c.2,0,.55.013.829.013s.626-.013.853-.013c-.007.142,0,.363.007.509l-.1.027c-.016-.216-.056-.389-.406-.389h-.462v.872h.4c.2,0,.243-.113.262-.293h.1c-.007.131-.01.26-.01.39s0,.254.009.38l-.1.019c-.02-.2-.029-.329-.261-.329h-.4v.775c0,.216.192.216.4.216.4,0,.576-.026.676-.405l.094.023c-.044.177-.083.353-.114.53-.213,0-.6-.013-.895-.013s-.7.013-.887.013v-.1Z" transform="translate(-36.284 -51.199)"/><path class="b" d="M47.522,59.656c.03-.168.068-.337.108-.5l-.065-.016c-.1.373-.293.406-.685.4-.21,0-.42,0-.421-.231v-.789h.413c.233,0,.256.137.273.327l.072-.015c-.007-.122-.009-.245-.009-.367s0-.249.009-.375h-.072c-.018.173-.073.295-.276.293h-.411v-.9h.477c.347,0,.4.175.42.385l.071-.019c-.005-.094-.01-.214-.01-.325,0-.057,0-.112,0-.158-.226,0-.562.013-.837.013s-.611-.013-.814-.013v.071H45.8c.118,0,.26.021.261.206v1.743c0,.185-.143.2-.261.206h-.033v.07c.194,0,.577-.013.872-.013s.668.012.882.012m.013.028c-.213,0-.6-.013-.895-.013s-.7.013-.887.013h-.012v-.129h.06c.12,0,.23-.012.231-.175V57.638c0-.163-.111-.174-.231-.176H45.74v-.128h.013c.2,0,.55.012.829.012s.626-.011.853-.011h.014v.015c0,.05,0,.109,0,.172,0,.115,0,.241.01.336v.012l-.01,0-.118.031v-.017c-.019-.215-.048-.373-.391-.375h-.449v.843h.383c.192,0,.226-.1.248-.28l0-.013h.127v.015c-.006.13-.01.259-.01.389s0,.252.009.379v.012l-.012,0-.115.024v-.017c-.023-.2-.024-.314-.246-.317h-.385v.761c0,.2.175.2.392.2.4,0,.562-.022.662-.4l0-.013.013,0,.107.026,0,.014c-.043.175-.083.353-.112.529l0,.01h-.011Zm.988-1.214h.164c.333,0,.512-.126.512-.519a.452.452,0,0,0-.485-.485,1.685,1.685,0,0,0-.19.012v.992ZM48.1,57.7c0-.243-.133-.253-.237-.253H47.8v-.1c.106,0,.312.013.516.013s.36-.013.536-.013c.42,0,.793.112.793.586a.629.629,0,0,1-.464.586l.57.852a.373.373,0,0,0,.324.2v.1c-.111,0-.217-.014-.327-.014s-.21.013-.313.013a9.161,9.161,0,0,1-.692-1.079h-.221V59.3c0,.256.12.265.273.265h.06v.1c-.189,0-.382-.014-.572-.014-.16,0-.317.013-.483.013v-.1h.059c.125,0,.237-.057.237-.179V57.7Z" transform="translate(-39.405 -51.338)"/><path class="b" d="M51.317,58.455c.33,0,.5-.118.5-.5a.441.441,0,0,0-.472-.472,1.579,1.579,0,0,0-.175.012v.965Zm-.164.029H51.14V57.465l.012,0a1.655,1.655,0,0,1,.191-.012.47.47,0,0,1,.5.5c0,.4-.192.534-.527.534h-.164Zm0,.09h.229l0,.009a10.324,10.324,0,0,0,.681,1.071c.1,0,.21-.013.312-.013s.21.011.313.013v-.073a.378.378,0,0,1-.321-.2l-.579-.866.016-.008a.612.612,0,0,0,.454-.572c0-.463-.36-.57-.779-.572-.175,0-.335.013-.535.013s-.394-.013-.5-.013v.071h.045c.1,0,.251.016.251.267v1.691c0,.133-.125.194-.251.194h-.045v.07c.161,0,.312-.012.468-.012.186,0,.374.013.558.013v-.07h-.045c-.152,0-.286-.019-.286-.282v-.727h.013Zm1.553,1.107c-.112,0-.219-.012-.328-.012s-.207.012-.323.007a9.32,9.32,0,0,1-.69-1.072h-.2v.7c0,.249.1.248.258.251H51.5v.129h-.015c-.19,0-.384-.013-.573-.013-.158,0-.316.013-.482.013h-.014v-.129h.073c.12,0,.222-.052.223-.164V57.7c0-.236-.118-.235-.223-.238h-.074V57.33h.015c.108,0,.313.013.516.013s.359-.013.536-.013c.42,0,.807.117.807.6a.638.638,0,0,1-.455.592l.559.837a.354.354,0,0,0,.314.192l.012,0v.127h-.014Zm2.26-.669.006-.007V57.758a.275.275,0,0,0-.29-.313H54.61v-.1c.156,0,.309.013.466.013.136,0,.272-.013.41-.013v.1h-.049c-.14,0-.3.027-.3.423v1.515a2.315,2.315,0,0,0,.019.337h-.127l-1.714-1.911v1.372c0,.29.056.389.313.389h.057v.1c-.143,0-.287-.013-.43-.013s-.3.013-.452.013v-.1h.046c.231,0,.3-.156.3-.422v-1.4a.3.3,0,0,0-.3-.3h-.044v-.1c.126,0,.255.013.382.013.1,0,.2-.013.3-.013l1.483,1.668Z" transform="translate(-42.036 -51.336)"/><path class="b" d="M58.012,58.918l0,0,0,0Zm.009.007.01-.01-.01.01Zm.066.691h.11a2.222,2.222,0,0,1-.018-.321V57.78c0-.4.169-.436.312-.436h.035v-.071c-.131,0-.262.013-.395.013-.153,0-.3-.013-.45-.013v.071h.058a.291.291,0,0,1,.3.327l-.006,1.259-.005.006-.01.01-1.483-1.674c-.1,0-.195.013-.3.013-.122,0-.248-.013-.369-.013v.071H55.9a.313.313,0,0,1,.318.313v1.4c0,.267-.075.437-.315.438h-.032v.07c.144,0,.292-.013.438-.013s.278.013.417.013V59.5h-.043c-.262,0-.328-.115-.329-.4V57.683l1.73,1.933Zm.127.029-.137,0-1.689-1.884v1.334c0,.29.047.372.3.375h.07v.129h-.015c-.143,0-.286-.013-.429-.013s-.3.013-.451.013h-.016v-.129h.062c.22,0,.283-.142.286-.409v-1.4a.285.285,0,0,0-.289-.284h-.059v-.129h.016c.127,0,.256.013.382.013.1,0,.194-.013.306-.009L58.013,58.9V57.67c0-.265-.177-.3-.274-.3H57.65v-.129h.015c.157,0,.311.013.466.013.136,0,.272-.013.409-.013h.016v.129h-.064c-.138,0-.28.016-.283.409V59.3a2.19,2.19,0,0,0,.019.334l0,.017h-.016Zm1.348-2.015h-.007l-.31.943h.621l-.3-.942ZM59.075,59.1a1.43,1.43,0,0,0-.074.261c0,.1.14.117.25.117h.038v.1c-.134-.009-.27-.013-.4-.013-.119,0-.238.005-.359.013v-.1h.021a.3.3,0,0,0,.289-.216l.534-1.527a2.691,2.691,0,0,0,.124-.412,1.7,1.7,0,0,0,.3-.143.115.115,0,0,1,.026-.007c.01,0,.017,0,.024.01.01.026.019.057.031.083l.612,1.741c.039.117.08.239.122.34a.21.21,0,0,0,.22.133h.019v.1c-.149-.009-.3-.014-.459-.014s-.33.006-.5.013v-.1h.037c.076,0,.207-.013.207-.1a.993.993,0,0,0-.067-.241l-.129-.386h-.755l-.106.346Z" transform="translate(-45.091 -51.249)"/><path class="b" d="M62.978,57.608l.008,0-.009,0Zm-.283.923h.583l-.29-.891-.294.891Zm-.04.029.319-.971h.019V57.6h0v-.014H63l.317.971h-.664Zm.681.98c.164-.007.327-.013.485-.013s.3.007.446.013v-.07h-.006a.225.225,0,0,1-.234-.142c-.044-.1-.085-.224-.124-.341l-.612-1.741c-.01-.026-.02-.056-.028-.08,0,0,0,0-.006,0h-.007a.062.062,0,0,0-.019,0,1.217,1.217,0,0,1-.3.134,2.882,2.882,0,0,1-.123.415l-.532,1.528a.316.316,0,0,1-.3.226h-.006v.07c.115-.006.23-.012.346-.012s.26.007.387.012v-.07h-.021c-.109,0-.26-.013-.264-.131a1.341,1.341,0,0,1,.073-.264l.015,0-.015,0,.11-.356h.776l.133.4a1.04,1.04,0,0,1,.068.246c-.006.1-.146.108-.222.11h-.022v.069Zm.943.028c-.149-.006-.3-.013-.459-.013s-.328.008-.5.013l-.014,0v-.131h.05c.078,0,.191-.017.192-.08a1,1,0,0,0-.066-.236l-.127-.376h-.734l-.1.336a1.414,1.414,0,0,0-.074.255c0,.081.126.1.236.1h.052v.131l-.016,0c-.133-.006-.269-.013-.4-.013s-.238.008-.358.013l-.015,0v-.131h.035a.283.283,0,0,0,.275-.206l.534-1.528a4.17,4.17,0,0,0,.133-.422,1.814,1.814,0,0,0,.3-.143.081.081,0,0,1,.031-.008.038.038,0,0,1,.037.019c.009.027.02.057.031.083l.612,1.742c.039.116.079.24.122.338a.2.2,0,0,0,.207.122h.034v.132h-.015Zm.146-2.171c-.248,0-.259.059-.309.3h-.1c.013-.094.031-.186.042-.283a2.022,2.022,0,0,0,.017-.283h.082c.026.1.111.1.2.1h1.719c.089,0,.172,0,.178-.1l.08.013c-.013.09-.026.179-.036.269s-.007.179-.007.269l-.1.037c-.006-.122-.022-.32-.245-.32H65.4v1.771c0,.257.116.286.276.286h.064v.1c-.13,0-.363-.014-.542-.014-.2,0-.433.013-.563.013v-.1H64.7c.184,0,.276-.017.276-.28V57.4h-.547Z" transform="translate(-48.521 -51.222)"/><path class="b" d="M68.385,59.545c-.13,0-.364-.012-.542-.012-.2,0-.432.012-.562.012h-.015v-.129h.078c.184,0,.257-.007.262-.264V57.388h-.531V57.36h.561v1.793c0,.267-.108.293-.291.293H67.3v.071c.131,0,.355-.013.548-.013.175,0,.4.012.528.013v-.071h-.048c-.161,0-.29-.039-.291-.3V57.36h.561c.223,0,.252.191.259.314l.072-.026c0-.087,0-.174.007-.262s.022-.171.032-.256l-.049-.009c-.015.1-.108.1-.191.1H66.987c-.077,0-.162,0-.192-.1H66.74a1.893,1.893,0,0,1-.019.27c-.01.092-.025.18-.038.268h.071c.044-.232.073-.307.321-.3v.028c-.246,0-.241.045-.3.292l0,.011h-.13l0-.017c.013-.094.029-.187.039-.283a1.987,1.987,0,0,0,.02-.281V57.1h.106l0,.01c.025.084.084.084.169.086h1.736c.091,0,.159,0,.164-.09v-.016l.014,0,.1.015,0,.014c-.014.09-.026.179-.037.268s-.006.179-.006.269v.01l-.01,0-.118.042v-.02c-.009-.124-.021-.306-.232-.306h-.531v1.758c0,.25.1.267.262.27H68.4v.131h-.015Zm.719-.114h.047c.12,0,.246-.017.246-.19V57.5c0-.173-.127-.191-.246-.191h-.046v-.1c.13,0,.329.013.492.013s.366-.013.523-.013v.1h-.046c-.121,0-.247.017-.247.191v1.743c0,.173.127.19.247.19h.046v.1c-.161,0-.359-.014-.526-.014s-.36.013-.49.013v-.1Z" transform="translate(-51.169 -51.199)"/><path class="b" d="M73.246,59.609v-.07h-.031c-.12,0-.262-.021-.262-.206V57.592c0-.184.141-.2.262-.2h.031v-.071c-.154,0-.347.013-.508.013s-.349-.013-.478-.013v.071h.033c.118,0,.261.021.261.2v1.743c0,.185-.143.2-.261.2H72.26v.07c.129,0,.316-.012.476-.012s.353.012.511.013m.015.028c-.162,0-.361-.013-.526-.013s-.359.013-.49.013h-.015V59.51h.06c.12,0,.23-.012.232-.175V57.592c0-.163-.112-.174-.232-.176H72.23v-.128h.014c.131,0,.33.012.492.012s.365-.011.523-.011h.013v.127h-.059c-.122,0-.232.014-.233.176v1.743c0,.163.109.173.232.175h.061v.129H73.26Zm1.377-.111c.646,0,.758-.57.758-1.054s-.262-1.076-.815-1.076c-.583,0-.757.519-.757.964,0,.6.274,1.166.814,1.166m-.051-2.277A1.168,1.168,0,0,1,75.863,58.4a1.22,1.22,0,0,1-1.257,1.274A1.176,1.176,0,0,1,73.36,58.48a1.212,1.212,0,0,1,1.229-1.229" transform="translate(-54.309 -51.291)"/><path class="b" d="M75.246,58.343c0-.448.175-.98.771-.98.564,0,.828.6.83,1.091s-.115,1.068-.774,1.068v-.028c.633,0,.744-.555.745-1.041s-.261-1.061-.8-1.061c-.573,0-.74.507-.742.951,0,.593.271,1.15.8,1.152v.027c-.552,0-.826-.58-.827-1.179m-.467.118a1.227,1.227,0,0,1,1.242-1.244v.029a1.2,1.2,0,0,0-1.214,1.214,1.162,1.162,0,0,0,1.231,1.18,1.207,1.207,0,0,0,1.244-1.26,1.153,1.153,0,0,0-1.261-1.134v-.029a1.186,1.186,0,0,1,1.29,1.163A1.237,1.237,0,0,1,76.04,59.67a1.192,1.192,0,0,1-1.26-1.209m4.762.488.007-.007V57.695a.276.276,0,0,0-.291-.313h-.071v-.1c.155,0,.308.013.465.013.136,0,.274-.013.41-.013v.1h-.051c-.14,0-.3.027-.3.423V59.32a2.091,2.091,0,0,0,.02.337h-.127l-1.714-1.911v1.372c0,.29.056.389.313.389h.057v.1c-.143,0-.286-.013-.429-.013s-.3.013-.455.013v-.1h.048c.23,0,.3-.156.3-.422v-1.4a.3.3,0,0,0-.3-.3H77.38v-.1c.127,0,.256.013.384.013.1,0,.2-.013.3-.013l1.482,1.668Z" transform="translate(-55.744 -51.273)"/><path class="b" d="M82.86,58.918l0,0,0,0Zm.009.007.01-.01Zm.066.691h.108a2.374,2.374,0,0,1-.017-.321V57.78c0-.4.168-.436.311-.436h.035v-.071c-.131,0-.262.013-.4.013-.151,0-.3-.013-.45-.013v.071h.058a.292.292,0,0,1,.3.328l0,1.258-.007.006-.01.01-1.483-1.674c-.1,0-.195.013-.3.013-.122,0-.247-.013-.368-.013v.071h.028a.313.313,0,0,1,.318.313v1.4c0,.267-.074.437-.314.438h-.033v.07c.145,0,.293-.013.438-.013s.277.013.415.013V59.5h-.044c-.262,0-.327-.115-.327-.4V57.682l1.73,1.934Zm.126.029-.138,0-1.689-1.884v1.334c0,.29.049.372.3.374H81.6v.129h-.014c-.143,0-.287-.012-.429-.012s-.3.012-.453.012h-.014v-.129h.062c.219,0,.282-.141.283-.407v-1.4a.284.284,0,0,0-.289-.284h-.057v-.129h.013c.129,0,.258.012.384.012.1,0,.194-.012.306-.009l1.463,1.649V57.669c0-.265-.178-.3-.276-.3H82.5v-.127h.015c.157,0,.311.012.465.012.136,0,.272-.012.411-.012H83.4v.128h-.065c-.137,0-.28.017-.283.409V59.3a2.132,2.132,0,0,0,.02.334l0,.017h-.017ZM84.41,57.63H84.4l-.31.943h.623l-.306-.942ZM83.923,59.1a1.477,1.477,0,0,0-.073.261c0,.1.14.117.249.117h.037v.1c-.133-.009-.27-.013-.4-.013s-.239.005-.359.013v-.1h.019a.3.3,0,0,0,.29-.216l.534-1.527a2.729,2.729,0,0,0,.122-.412,1.718,1.718,0,0,0,.3-.143.083.083,0,0,1,.026-.007c.01,0,.017,0,.023.01.011.026.021.057.031.083l.611,1.741c.04.117.08.239.124.34a.211.211,0,0,0,.22.133h.02v.1c-.15-.009-.3-.014-.461-.014s-.329.006-.5.013v-.1h.036c.077,0,.207-.013.207-.1a1.052,1.052,0,0,0-.067-.241l-.13-.386h-.755l-.106.346Z" transform="translate(-59.071 -51.249)"/><path class="b" d="M87.827,57.615l.006,0-.007,0Zm-.283.923h.582l-.29-.891-.292.891Zm-.04.029.319-.971h.018v.014h0v-.014h.01l.316.971H87.5Zm.68.98c.166-.007.327-.013.485-.013s.3.007.446.013v-.07h-.005a.225.225,0,0,1-.232-.142c-.045-.1-.083-.224-.124-.341l-.612-1.741c-.01-.026-.021-.056-.028-.08,0,0,0,0-.005,0H88.1a.071.071,0,0,0-.019,0,1.244,1.244,0,0,1-.3.134,2.725,2.725,0,0,1-.123.415l-.534,1.528a.314.314,0,0,1-.3.226h0v.07c.115-.006.229-.012.344-.012s.262.007.389.012v-.07h-.023c-.108,0-.26-.013-.264-.131a1.424,1.424,0,0,1,.074-.264l.013,0-.013,0,.111-.356h.775l.133.4a.994.994,0,0,1,.068.245c-.006.1-.144.109-.221.111h-.023v.07Zm.945.028c-.152-.006-.3-.012-.46-.012s-.329.007-.5.012l-.014,0v-.13h.051c.078,0,.192-.017.192-.081a1.022,1.022,0,0,0-.066-.236l-.127-.376h-.735l-.1.336a1.232,1.232,0,0,0-.073.255c0,.082.125.1.234.1h.051v.13l-.015,0c-.133-.006-.269-.012-.4-.012s-.238.007-.359.012l-.014,0v-.13h.032a.289.289,0,0,0,.277-.206l.532-1.529a3.957,3.957,0,0,0,.131-.422,1.731,1.731,0,0,0,.3-.143.075.075,0,0,1,.031-.007.038.038,0,0,1,.037.02c.009.025.019.057.031.083l.611,1.741c.04.116.08.241.122.339a.2.2,0,0,0,.206.123h.035v.131h-.014Zm.839-.34c0,.135.093.174.2.188a2.34,2.34,0,0,0,.44-.009.475.475,0,0,0,.319-.179.761.761,0,0,0,.1-.24h.1c-.036.19-.083.377-.122.567-.293,0-.586-.013-.879-.013s-.585.013-.879.013v-.1h.046c.12,0,.25-.016.25-.223v-1.71c0-.173-.13-.191-.25-.191h-.045v-.1c.177,0,.35.013.527.013s.336-.013.506-.013v.1h-.083c-.126,0-.227,0-.227.18v1.718Z" transform="translate(-62.502 -51.228)"/><path class="b" d="M94.128,59.653c.038-.179.082-.357.118-.537h-.069a.772.772,0,0,1-.1.234.5.5,0,0,1-.331.185c-.087.009-.173.013-.255.013-.064,0-.127,0-.188-.007-.108-.012-.213-.059-.212-.2V57.623c0-.186.117-.194.241-.194H93.4v-.072c-.164,0-.325.013-.491.013s-.341-.013-.513-.013v.071h.032c.118,0,.265.02.265.2v1.711c0,.215-.144.237-.265.237H92.4v.071c.289,0,.576-.013.866-.013s.577.013.866.013m.012.029c-.293,0-.586-.012-.879-.012s-.585.012-.88.012h-.013v-.128h.06c.12,0,.234-.011.235-.208V57.634c0-.162-.114-.173-.235-.175h-.06v-.129h.013c.178,0,.351.012.527.012s.335-.012.506-.012h.013v.129h-.1c-.128,0-.21,0-.212.166v1.718c0,.124.083.157.186.173q.088.007.185.007a2.488,2.488,0,0,0,.252-.012.461.461,0,0,0,.309-.175.723.723,0,0,0,.1-.234l0-.011h.126l0,.017c-.038.19-.083.376-.125.566l0,.01h-.01Z" transform="translate(-65.64 -51.335)"/></g></svg>