<svg xmlns="http://www.w3.org/2000/svg" width="55.983" height="34.99" viewBox="0 0 55.983 34.99"><defs><style>.a{fill:#f9f9fa;}.b{fill:#03a550;}.c{fill:#0c72ba;}.d{fill:#fff;}.e{fill:#eb2227;}</style></defs><path class="a" d="M55.983,33.123a1.867,1.867,0,0,1-1.866,1.867H1.866A1.867,1.867,0,0,1,0,33.123V1.867A1.865,1.865,0,0,1,1.866,0H54.117a1.866,1.866,0,0,1,1.866,1.867V33.123Z"/><path class="b" d="M78.5,28.332c.068,2.039.136,4.146.034,6.219a2.809,2.809,0,0,1-1.325,2.073,4,4,0,0,1-2.039.442l-2.7-.033-.017-17.3a2.93,2.93,0,0,1,2.074-2.447,37.282,37.282,0,0,1,3.942-.136l.068.883v9.822l-.034.034v.442Z" transform="translate(-40.761 -9.649)"/><path class="c" d="M41.52,27.724V19.567a2.965,2.965,0,0,1,1.8-2.107,15.957,15.957,0,0,1,4.214-.206c.068,1.327,0,2.992.035,4.148l.068,10.637c-.171,1.631.442,3.841-1.6,4.759-1.29.646-3.025.238-4.486.374l-.034-.238Z" transform="translate(-23.36 -9.687)"/><path class="d" d="M41.519,38.264a2.959,2.959,0,0,0,2.21,1.291c1.121.1,2.583.2,3.33-.848.51-.545.2-1.292.306-2.005l-.033-1.292a12.566,12.566,0,0,0-1.973-.035c-.373,1.4.612,2.957-.985,3.672a1.757,1.757,0,0,1-1.292-.2c-.611-.136-.271-1.121-1.087-.85l-.477-.067v.339Z" transform="translate(-23.36 -19.887)"/><path class="e" d="M63.033,18.382l.034,16.552a3.008,3.008,0,0,1-1.7,1.938,14,14,0,0,1-4.317.237l-.068-17.436A2.668,2.668,0,0,1,58.308,17.7a3.438,3.438,0,0,1,1.768-.477h2.889Z" transform="translate(-32.06 -9.692)"/><path class="d" d="M63.022,35.434a3.488,3.488,0,0,1,.034.612c-1.019-.272-2.277-.578-3.2.17A1.693,1.693,0,0,0,60.4,39a4.866,4.866,0,0,0,2.616-.171.978.978,0,0,1,0,.543H59.112a2.02,2.02,0,0,1-1.529-1.19,2.093,2.093,0,0,1,.34-2.072,1.986,1.986,0,0,1,1.631-.714l3.467.034ZM70.057,38.6a1.137,1.137,0,0,1-.849.848H64.449l-.169-.068c0-1.358-.034-2.65.035-3.976h3.024c.952.1,2.005-.306,2.448.578a.883.883,0,0,1-.136.952c-.136.237-.442.272-.51.442a1.408,1.408,0,0,1,.918.782V38.6Zm-4.078-2.787a3.3,3.3,0,0,0-.034,1.29c.714-.032,1.631.239,2.107-.3a.674.674,0,0,0-.034-.715c-.544-.475-1.358-.169-2.039-.271Zm1.836,1.869a8.946,8.946,0,0,0-1.9-.034,6.318,6.318,0,0,0,.068,1.393,4.563,4.563,0,0,0,2.039-.2.727.727,0,0,0,.206-.679.713.713,0,0,0-.409-.476Z" transform="translate(-32.32 -19.913)"/></svg>