<svg xmlns="http://www.w3.org/2000/svg" width="55.983" height="34.99" viewBox="0 0 55.983 34.99"><defs><style>.a{fill:#006;}.a,.b,.c,.d,.e{fill-rule:evenodd;}.b{fill:#f79f1a;}.c{fill:#ea001b;}.d{fill:#ff5f01;}.e{fill:#fff;}</style></defs><path class="a" d="M55.983,33.124a1.866,1.866,0,0,1-1.867,1.866H1.866A1.865,1.865,0,0,1,0,33.123V1.868A1.866,1.866,0,0,1,1.866,0H54.117a1.866,1.866,0,0,1,1.866,1.868V33.124Z" transform="translate(0)"/><path class="b" d="M75.184,26.206v-.375h-.1l-.112.258-.112-.258h-.1v.375h.069v-.283l.1.244h.071l.1-.244v.283h.068Zm-.614,0V25.9h.124v-.063h-.316V25.9H74.5v.311Zm.634-5.571a10.387,10.387,0,1,1-10.386-10.5A10.443,10.443,0,0,1,75.2,20.636Z" transform="translate(-30.625 -5.703)"/><path class="c" d="M45.908,20.636a10.387,10.387,0,1,1-10.386-10.5A10.443,10.443,0,0,1,45.908,20.636Z" transform="translate(-14.142 -5.703)"/><path class="d" d="M58.412,15.245a10.573,10.573,0,0,0,0,16.53,10.574,10.574,0,0,0,0-16.53Z" transform="translate(-30.626 -8.577)"/><g transform="translate(12.714 26.753)"><path class="e" d="M60.516,64.659a.284.284,0,0,0-.2.082.277.277,0,0,0,0,.395.281.281,0,1,0,.2-.477Zm0,.5a.226.226,0,1,1,.214-.218.22.22,0,0,1-.063.154A.211.211,0,0,1,60.516,65.156Zm.016-.349h-.119v.26h.055v-.1h.025l.078.1h.066l-.084-.1a.1.1,0,0,0,.061-.026.072.072,0,0,0,.021-.053.075.075,0,0,0-.027-.06A.119.119,0,0,0,60.532,64.807Zm0,.049a.058.058,0,0,1,.035.009.029.029,0,0,1,.013.025.03.03,0,0,1-.013.026.06.06,0,0,1-.035.009h-.063v-.07h.063Zm-30.872.183h-.59V62.264h.578V62.6a1.885,1.885,0,0,1,.809-.409,1.273,1.273,0,0,1,.936.513,1.089,1.089,0,0,1,.925-.513,1.067,1.067,0,0,1,1.086.875v1.959h-.566V63.3a.544.544,0,0,0-.612-.525.633.633,0,0,0-.694.525v1.725h-.589V63.29a.6.6,0,0,0-.59-.548c-.692,0-.705.56-.705.56l.012,1.737Zm17.923-2.845a1.881,1.881,0,0,0-.809.408v-.338H46.2v2.774h.59L46.774,63.3s.013-.559.705-.559a.575.575,0,0,1,.307.08v0l.192-.54a1.05,1.05,0,0,0-.4-.087Zm8.3,0a1.881,1.881,0,0,0-.809.408v-.338H54.5v2.774h.59L55.077,63.3s.013-.559.705-.559a.577.577,0,0,1,.307.08v0l.192-.54a1.051,1.051,0,0,0-.4-.087ZM35.31,62.183a1.412,1.412,0,0,0-1.351,1.468,1.451,1.451,0,0,0,1.376,1.475,1.517,1.517,0,0,0,.9-.367v.283h.58V62.263h-.583v.35a1.361,1.361,0,0,0-.919-.431Zm.113.565a.93.93,0,1,1-.856.928A.9.9,0,0,1,35.423,62.748Zm16.805-.565a1.412,1.412,0,0,0-1.351,1.468,1.451,1.451,0,0,0,1.376,1.475,1.517,1.517,0,0,0,.9-.367v.283h.58V62.263h-.582v.35a1.363,1.363,0,0,0-.919-.431Zm.113.565a.93.93,0,1,1-.856.928A.9.9,0,0,1,52.341,62.748Zm5.457-.565a1.412,1.412,0,0,0-1.351,1.468,1.452,1.452,0,0,0,1.376,1.475,1.517,1.517,0,0,0,.9-.367v.283h.58V61.167h-.582v1.446a1.363,1.363,0,0,0-.919-.431Zm.113.565a.93.93,0,1,1-.856.928A.9.9,0,0,1,57.911,62.748Zm-19.33,2.385a2.377,2.377,0,0,1-1.156-.373l.255-.4a2.717,2.717,0,0,0,.9.245c.245,0,.654-.08.659-.327s-.688-.338-.688-.338-1.034-.014-1.034-.875c0-.541.516-.886,1.179-.886a3.706,3.706,0,0,1,1.1.338l-.289.455a3.569,3.569,0,0,0-.844-.234c-.246-.009-.543.11-.543.327,0,.588,1.722-.046,1.722,1.142C39.841,64.991,39.14,65.132,38.581,65.132ZM40.8,61.46v.807h-.513v.584H40.8v1.4a.894.894,0,0,0,.96.943,3.338,3.338,0,0,0,.822-.207l-.232-.606a.782.782,0,0,1-.461.18c-.465-.012-.452-.312-.452-.312V62.85h.958v-.584h-.958v-.807H40.8Zm3.491.757a1.48,1.48,0,0,0,.057,2.959,2.639,2.639,0,0,0,1.071-.395l-.269-.472a1.7,1.7,0,0,1-.8.306.788.788,0,0,1-.8-.741h2.011s.15-1.658-1.268-1.658Zm-.086.545h.07a.666.666,0,0,1,.7.675h-1.43A.645.645,0,0,1,44.2,62.761ZM50.271,64.3l.269.544a1.877,1.877,0,0,1-.907.28,1.479,1.479,0,0,1-1.544-1.467,1.385,1.385,0,0,1,1.47-1.451,2.032,2.032,0,0,1,1.005.314l-.3.544a.83.83,0,0,0-.719-.289.916.916,0,0,0,.008,1.822A1.23,1.23,0,0,0,50.271,64.3Z" transform="translate(-29.07 -61.167)"/></g></svg>