<svg xmlns="http://www.w3.org/2000/svg" xmlns:xlink="http://www.w3.org/1999/xlink" width="55.984" height="34.99" viewBox="0 0 55.984 34.99"><defs><style>.a{fill:#f2f2f2;}.b{fill:#f58220;}.c{fill:url(#a);}.d{fill:#081a23;}.e{fill:#231f20;}</style><radialGradient id="a" cx="0.5" cy="0.5" r="0.506" gradientTransform="translate(0) scale(0.978 1)" gradientUnits="objectBoundingBox"><stop offset="0.006" stop-color="#ffeee1"/><stop offset="0.097" stop-color="#ffead8"/><stop offset="0.245" stop-color="#feddc2"/><stop offset="0.433" stop-color="#fcca9f"/><stop offset="0.652" stop-color="#f9af72"/><stop offset="0.895" stop-color="#f68f39"/><stop offset="1" stop-color="#f48220"/></radialGradient></defs><path class="a" d="M55.983,33.123a1.867,1.867,0,0,1-1.867,1.867H1.866A1.866,1.866,0,0,1,0,33.123V1.867A1.865,1.865,0,0,1,1.866,0H54.117a1.866,1.866,0,0,1,1.866,1.867V33.123Z"/><path class="b" d="M35.184,60.746H73.913a1.867,1.867,0,0,0,1.866-1.867v-13.1c-3.718,2.357-17.731,10.479-40.595,14.968Z" transform="translate(-19.796 -25.756)"/><path class="c" d="M61.969,33.77a2.745,2.745,0,0,0-2.794,2.692,2.791,2.791,0,1,0,2.794-2.692Z" transform="translate(-33.294 -19)"/><path class="d" d="M27.366,33.843h-1.5v5.24h1.494a2.738,2.738,0,0,0,1.869-.6,2.639,2.639,0,0,0,.95-2.013,2.6,2.6,0,0,0-2.812-2.622Zm1.195,3.935a1.937,1.937,0,0,1-1.4.417h-.276V34.731h.276a1.9,1.9,0,0,1,1.4.423,1.761,1.761,0,0,1,.563,1.3,1.792,1.792,0,0,1-.563,1.321Zm2.089-3.935h1.02v5.24H30.65Zm3.519,2.009c-.614-.227-.793-.376-.793-.659,0-.329.321-.58.761-.58a1.065,1.065,0,0,1,.826.423l.534-.7a2.289,2.289,0,0,0-1.54-.583,1.54,1.54,0,0,0-1.634,1.5c0,.724.33,1.093,1.289,1.438a3.922,3.922,0,0,1,.707.3.627.627,0,0,1,.306.541.746.746,0,0,1-.793.739,1.207,1.207,0,0,1-1.115-.7l-.659.637a2.034,2.034,0,0,0,1.814,1,1.691,1.691,0,0,0,1.806-1.721c0-.832-.344-1.21-1.508-1.636Zm1.83.613A2.714,2.714,0,0,0,38.765,39.2a2.805,2.805,0,0,0,1.281-.306v-1.2a1.634,1.634,0,0,1-1.233.573,1.713,1.713,0,0,1-1.76-1.807,1.741,1.741,0,0,1,1.713-1.8,1.711,1.711,0,0,1,1.281.59v-1.2a2.607,2.607,0,0,0-1.257-.32A2.755,2.755,0,0,0,36,36.465Zm12.326.9-1.4-3.519H45.811l2.224,5.373h.549l2.264-5.374H49.742m1.571,5.24h2.9v-.888H52.332V36.781h1.806v-.888H52.332V34.729H54.21v-.887h-2.9m6.942,1.547c0-.982-.675-1.547-1.853-1.547H54.885v5.24h1.023V36.977h.133l1.414,2.105h1.256l-1.65-2.207a1.4,1.4,0,0,0,1.194-1.486Zm-2.05.865h-.3V34.667h.314c.637,0,.982.269.982.778,0,.527-.346.81-1,.81Z" transform="translate(-14.552 -18.975)"/><path class="e" d="M101.155,34.7c0-.092-.062-.142-.174-.142h-.149v.462h.11v-.179l.128.179h.138l-.154-.192a.127.127,0,0,0,.1-.129Zm-.193.063h-.019v-.119h.02c.056,0,.083.019.083.059s-.028.061-.084.061Z" transform="translate(-56.731 -19.446)"/><path class="e" d="M100.706,34.165a.4.4,0,1,0,.4.4A.4.4,0,0,0,100.706,34.165Zm0,.735a.331.331,0,1,1,.318-.33.326.326,0,0,1-.318.33Z" transform="translate(-56.434 -19.222)"/></svg>