<svg xmlns="http://www.w3.org/2000/svg" width="55.983" height="34.99" viewBox="0 0 55.983 34.99"><defs><style>.a{fill:#f9f9fa;}.b{fill:#0a67b2;}.c{fill:#faa634;}</style></defs><path class="a" d="M55.983,33.124a1.866,1.866,0,0,1-1.866,1.866H1.867A1.866,1.866,0,0,1,0,33.124V1.867A1.866,1.866,0,0,1,1.867,0H54.118a1.866,1.866,0,0,1,1.865,1.867Z"/><g transform="translate(11.234 12.059)"><path class="b" d="M40.214,38.263H37.48l1.709-10.5h2.735m-6.746,0-2.607,7.225-.308-1.556L31.342,28.7a1.17,1.17,0,0,0-1.3-.946h-4.31l-.05.178a10.22,10.22,0,0,1,2.861,1.2l2.376,9.126h2.849l4.351-10.5Zm21.512,10.5H59.2l-2.189-10.5h-2.2a1.258,1.258,0,0,0-1.263.783l-4.078,9.722h2.85l.57-1.56h3.476l.321,1.561Zm-3.009-3.716,1.436-3.932.809,3.932H53.68Zm-3.995-4.263.391-2.256a7.907,7.907,0,0,0-2.46-.457c-1.358,0-4.581.594-4.581,3.477,0,2.714,3.783,2.748,3.783,4.172s-3.393,1.171-4.514.272L41.9,37.851a7.669,7.669,0,0,0,3.088.593c1.866,0,4.682-.967,4.682-3.6,0-2.731-3.816-2.985-3.816-4.173s2.664-1.035,3.833-.391Z" transform="translate(-25.685 -27.571)"/></g><path class="c" d="M32.263,33.67l-.921-4.724a1.17,1.17,0,0,0-1.3-.946h-4.31l-.05.178a10.6,10.6,0,0,1,4.059,2.038A8.183,8.183,0,0,1,32.263,33.67Z" transform="translate(-14.451 -15.754)"/></svg>