<svg xmlns="http://www.w3.org/2000/svg" width="40" height="40" viewBox="0 0 40 40"><defs><style>.a{fill:#4267b2;}.b{fill:#fff;}</style></defs><path class="a" d="M37.792,0H2.206A2.207,2.207,0,0,0,0,2.208V37.794A2.207,2.207,0,0,0,2.208,40H37.792A2.207,2.207,0,0,0,40,37.793h0V2.206A2.207,2.207,0,0,0,37.792,0Zm0,0" transform="translate(0 0)"/><path class="b" d="M218.445,111.283V95.814h5.215l.781-6.055h-6V85.9c0-1.749.486-2.941,2.993-2.941h3.178v-5.4a42.727,42.727,0,0,0-4.658-.238c-4.609,0-7.764,2.813-7.764,7.98V89.76H207v6.055h5.2v15.469Zm0,0" transform="translate(-190.828 -71.283)"/></svg>