<?xml version="1.0" standalone="no"?>
<!DOCTYPE svg PUBLIC "-//W3C//DTD SVG 20010904//EN"
 "http://www.w3.org/TR/2001/REC-SVG-20010904/DTD/svg10.dtd">
<svg version="1.0" xmlns="http://www.w3.org/2000/svg"
 width="1509.000000pt" height="319.000000pt" viewBox="0 0 1509.000000 319.000000"
 preserveAspectRatio="xMidYMid meet">

<g transform="translate(0.000000,319.000000) scale(0.100000,-0.100000)"
fill="#000000" stroke="none">
<path d="M8976 3159 c-139 -15 -238 -52 -332 -127 -201 -158 -236 -443 -83
-657 62 -86 200 -164 435 -245 340 -118 424 -185 424 -336 -1 -145 -100 -231
-281 -242 -112 -6 -201 19 -286 82 -58 42 -119 114 -144 169 -7 15 -17 27 -22
27 -25 0 -287 -104 -287 -114 0 -20 48 -114 89 -174 85 -126 237 -230 398
-274 110 -29 315 -29 426 1 201 53 349 179 408 347 29 84 36 230 15 314 -36
141 -100 230 -234 322 -61 42 -203 104 -387 168 -179 62 -236 91 -281 143 -58
69 -57 151 3 218 50 56 107 74 230 74 95 -1 105 -2 169 -35 63 -32 99 -67 139
-134 9 -15 24 -12 152 31 161 54 153 42 105 143 -37 79 -158 198 -243 238
-115 55 -262 77 -413 61z"/>
<path d="M12452 3140 c-147 -34 -296 -108 -418 -208 -243 -200 -383 -548 -345
-859 14 -111 67 -280 113 -363 284 -510 932 -668 1416 -346 148 98 299 286
363 450 224 578 -118 1205 -724 1330 -105 22 -298 20 -405 -4z m312 -260 c38
-6 100 -21 138 -34 219 -77 400 -276 453 -501 19 -79 19 -253 -1 -335 -18 -78
-70 -187 -121 -255 l-38 -50 -3 48 -3 47 -520 0 -519 0 0 -45 c0 -25 -3 -45
-6 -45 -24 0 -116 156 -150 255 -25 72 -28 94 -28 215 0 121 3 143 27 214 91
262 308 446 572 485 83 12 120 12 199 1z"/>
<path d="M12501 2739 c-79 -15 -169 -49 -211 -80 -51 -37 -70 -80 -70 -161 0
-74 -26 -148 -52 -148 -16 0 -18 -10 -18 -75 0 -69 2 -75 23 -80 12 -3 127
-25 254 -49 265 -50 202 -52 561 23 106 23 195 41 198 41 2 0 4 32 4 70 0 68
-1 70 -25 70 -17 0 -25 5 -25 18 0 10 -7 27 -15 38 -10 13 -14 45 -15 101 0
80 -1 84 -35 122 -43 47 -129 87 -231 106 -82 16 -272 18 -343 4z m376 -63
c133 -36 183 -80 183 -156 l0 -48 -61 25 c-186 75 -472 76 -662 2 -26 -11 -50
-19 -52 -19 -3 0 -5 22 -5 48 0 40 5 53 28 75 37 35 111 67 196 83 87 17 299
11 373 -10z m-134 -297 c36 -29 37 -33 37 -95 l0 -65 -37 30 c-54 44 -100 43
-153 -5 l-40 -36 0 65 c0 63 1 66 40 101 53 48 99 49 153 5z"/>
<path d="M12930 2079 c-124 -26 -243 -48 -265 -49 -22 0 -146 20 -275 45 -129
25 -236 45 -237 45 -2 0 -3 -56 -3 -125 l0 -125 520 0 520 0 0 130 c0 117 -2
130 -17 129 -10 0 -119 -23 -243 -50z"/>
<path d="M40 2200 l0 -930 633 2 632 3 0 150 0 150 -472 3 -473 2 0 250 0 250
273 2 272 3 0 150 0 150 -272 3 -273 2 0 220 0 220 445 0 445 0 0 150 0 150
-605 0 -605 0 0 -930z"/>
<path d="M2730 2201 l0 -931 160 0 160 0 0 365 0 365 193 0 194 0 179 -362
179 -363 178 -3 c103 -1 177 1 177 7 0 5 -81 174 -180 376 -99 202 -180 371
-180 374 0 4 30 20 68 36 131 57 253 210 292 370 17 69 14 227 -5 300 -50 188
-155 303 -330 363 l-80 27 -502 3 -503 3 0 -930z m955 608 c96 -34 151 -135
143 -263 -6 -84 -31 -141 -83 -184 -59 -48 -88 -52 -404 -52 l-291 0 0 261 0
261 298 -5 c221 -3 307 -7 337 -18z"/>
<path d="M4585 2223 c-186 -500 -341 -918 -343 -931 l-4 -22 167 2 167 3 72
200 71 200 367 3 366 2 16 -42 c9 -24 42 -115 74 -203 l57 -160 168 -3 c92 -1
167 1 167 5 -1 5 -155 422 -343 928 l-342 920 -161 3 -161 2 -338 -907z m658
30 l104 -283 -264 0 c-249 0 -265 1 -258 18 29 72 236 636 246 670 l13 43 27
-83 c15 -46 75 -210 132 -365z"/>
<path d="M6222 2203 l3 -928 160 0 160 0 3 928 2 927 -165 0 -165 0 2 -927z"/>
<path d="M7002 2203 l3 -928 610 0 610 0 3 153 3 152 -451 0 -450 0 0 775 0
775 -165 0 -165 0 2 -927z"/>
<path d="M10120 2200 l0 -931 158 3 157 3 3 353 2 352 284 0 c311 0 378 9 496
68 117 58 237 214 275 358 20 76 20 231 0 309 -40 155 -143 289 -269 350 -125
60 -172 65 -666 65 l-440 0 0 -930z m861 620 c112 -21 188 -113 197 -238 8
-126 -40 -222 -136 -269 l-57 -28 -272 -3 -273 -3 0 275 0 276 244 0 c134 0
268 -5 297 -10z"/>
<path d="M13660 2975 l0 -155 260 0 260 0 2 -772 3 -773 160 0 160 0 3 773 2
772 260 0 260 0 0 155 0 155 -685 0 -685 0 0 -155z"/>
<path d="M1632 2063 l3 -148 338 -3 337 -2 0 150 0 150 -340 0 -341 0 3 -147z"/>
<path d="M6335 693 c-96 -35 -159 -98 -190 -194 -16 -46 -16 -52 -1 -74 14
-20 25 -25 61 -25 41 0 51 5 105 55 33 30 56 55 51 55 -20 0 -61 -20 -81 -40
-30 -30 -24 -7 7 32 32 38 2 19 -34 -22 -28 -32 -29 -19 -2 30 45 80 164 108
248 59 46 -27 139 -132 148 -167 6 -24 -11 -52 -32 -52 -7 0 -24 -10 -39 -21
l-27 -21 -6 21 c-8 32 -55 28 -97 -10 -20 -17 -54 -67 -76 -112 -38 -75 -39
-82 -23 -91 10 -6 50 -11 89 -11 259 2 393 309 219 503 -79 87 -213 123 -320
85z"/>
<path d="M2813 650 l-43 -19 0 -66 0 -66 -22 15 c-53 37 -141 6 -182 -64 -16
-27 -21 -52 -21 -110 0 -131 52 -196 150 -186 28 3 76 6 108 5 l57 0 0 255 c0
141 -1 256 -2 255 -2 0 -22 -9 -45 -19z m-65 -226 c19 -13 22 -24 22 -89 0
-63 -3 -76 -19 -85 -32 -16 -69 -12 -91 12 -31 33 -28 121 5 153 28 29 51 31
83 9z"/>
<path d="M3213 649 l-43 -20 0 -235 0 -235 58 0 c31 0 80 -2 107 -5 96 -9 154
60 155 184 0 74 -16 116 -59 157 -26 25 -41 30 -79 30 -26 0 -55 -4 -64 -9
-16 -7 -18 -1 -18 73 0 45 -3 81 -7 80 -5 0 -27 -9 -50 -20z m156 -228 c46
-46 32 -156 -21 -175 -18 -7 -36 -6 -53 2 -24 11 -25 16 -25 91 0 66 3 82 18
90 27 16 60 13 81 -8z"/>
<path d="M4683 650 l-43 -19 0 -236 0 -235 45 0 45 0 0 111 c0 135 14 168 68
169 12 0 31 -9 42 -20 18 -18 20 -33 20 -140 l0 -120 50 0 50 0 -1 118 c-1
142 -14 198 -52 226 -38 28 -126 29 -156 2 l-20 -18 -3 90 -3 91 -42 -19z"/>
<path d="M9223 647 l-43 -21 0 -233 0 -233 50 0 49 0 3 87 c2 55 7 88 15 90 6
2 32 -36 58 -86 l47 -91 53 0 54 0 -66 126 -66 126 54 54 53 54 -59 0 c-56 0
-61 -2 -102 -42 l-43 -42 0 117 c0 64 -3 117 -7 116 -5 0 -27 -10 -50 -22z"/>
<path d="M10053 649 l-43 -18 0 -56 c0 -54 0 -55 -30 -55 -28 0 -30 -2 -30
-40 0 -38 2 -40 30 -40 l30 0 0 -123 c0 -116 1 -125 23 -145 17 -16 36 -22 68
-22 55 0 76 15 81 57 5 33 4 33 -36 30 l-41 -2 -3 103 -3 102 41 0 40 0 0 40
c0 40 0 40 -40 40 l-39 0 -3 73 -3 74 -42 -18z"/>
<path d="M10745 647 l-40 -23 -3 -232 -2 -232 50 0 50 0 0 255 c0 140 -3 255
-7 255 -5 0 -26 -11 -48 -23z"/>
<path d="M40 410 l0 -250 50 0 50 0 0 90 0 90 81 0 c126 0 186 41 197 135 6
59 -3 88 -39 129 -37 43 -91 56 -234 56 l-105 0 0 -250z m264 128 c20 -28 20
-58 2 -83 -11 -16 -30 -20 -90 -23 l-76 -4 0 66 0 66 74 0 c66 0 77 -3 90 -22z"/>
<path d="M4167 654 c-4 -4 -7 -27 -7 -51 l0 -43 75 0 75 0 0 -200 0 -200 50 0
50 0 0 200 0 200 71 0 70 0 -3 48 -3 47 -186 3 c-102 1 -188 -1 -192 -4z"/>
<path d="M5777 639 c-73 -38 -119 -130 -120 -236 0 -150 87 -252 216 -253 119
0 187 77 187 211 l0 59 -96 0 -95 0 3 -47 3 -48 43 -3 c48 -4 51 -10 18 -49
-20 -22 -32 -28 -65 -27 -72 2 -111 59 -111 159 0 94 36 151 102 161 29 5 41
1 72 -26 l37 -33 35 19 c20 11 38 23 41 27 8 14 -44 74 -80 91 -49 23 -142 20
-190 -5z"/>
<path d="M6943 648 c-5 -7 -26 -56 -45 -108 -20 -52 -61 -159 -91 -237 l-55
-143 54 0 53 0 18 50 18 50 95 0 95 0 18 -50 18 -50 53 0 53 0 -91 238 c-50
130 -95 243 -99 250 -5 6 -25 12 -46 12 -21 0 -43 -6 -48 -12z m78 -215 c13
-37 26 -71 27 -75 2 -4 -24 -8 -58 -8 -34 0 -60 4 -58 8 2 4 14 38 27 75 14
37 28 67 31 67 3 0 17 -30 31 -67z"/>
<path d="M7217 654 c-4 -4 -7 -27 -7 -51 l0 -43 75 0 75 0 0 -200 0 -200 50 0
50 0 0 200 0 200 71 0 70 0 -3 48 -3 47 -186 3 c-102 1 -188 -1 -192 -4z"/>
<path d="M7880 410 l0 -250 50 0 49 0 3 132 3 132 59 -132 c33 -73 62 -135 66
-137 3 -2 32 56 65 128 l60 132 3 -128 3 -127 49 0 50 0 0 251 0 250 -46 -3
-46 -3 -67 -147 c-36 -81 -68 -144 -72 -140 -3 4 -34 71 -69 150 l-63 142 -48
0 -49 0 0 -250z"/>
<path d="M570 519 c-68 -28 -104 -90 -104 -179 0 -121 51 -181 159 -188 50 -3
66 0 95 20 102 68 107 259 10 328 -37 27 -119 36 -160 19z m105 -104 c20 -19
25 -34 25 -78 0 -60 -24 -97 -64 -97 -73 0 -104 122 -46 180 27 27 56 25 85
-5z"/>
<path d="M1510 508 c-58 -30 -82 -72 -87 -156 -8 -114 48 -190 145 -200 57 -5
112 10 137 39 18 19 18 20 -10 49 l-28 29 -25 -19 c-28 -23 -54 -25 -85 -9
-25 14 -37 28 -37 47 0 9 30 12 115 12 l115 0 0 55 c0 31 -6 71 -14 89 -32 77
-141 108 -226 64z m134 -90 c9 -12 16 -26 16 -30 0 -5 -31 -8 -70 -8 -54 0
-70 3 -70 14 0 47 96 65 124 24z"/>
<path d="M1962 514 c-12 -8 -22 -10 -22 -5 0 6 -20 11 -45 11 l-45 0 0 -180 0
-180 45 0 45 0 0 104 c0 58 4 116 10 131 12 32 45 45 84 34 35 -10 46 1 46 49
0 26 -5 34 -26 42 -36 14 -66 12 -92 -6z"/>
<path d="M2224 512 c-57 -27 -86 -77 -91 -160 -8 -114 48 -190 145 -200 57 -5
112 10 137 39 18 19 18 20 -10 49 l-28 29 -25 -19 c-28 -23 -54 -25 -85 -9
-25 14 -37 28 -37 47 0 9 30 12 115 12 l115 0 0 55 c0 31 -6 71 -14 89 -31 74
-138 107 -222 68z m130 -94 c9 -12 16 -26 16 -30 0 -5 -31 -8 -70 -8 -54 0
-70 3 -70 14 0 47 96 65 124 24z"/>
<path d="M5144 512 c-63 -30 -89 -80 -89 -172 0 -83 18 -126 67 -163 53 -39
172 -32 213 14 18 19 18 20 -10 49 l-28 29 -25 -19 c-28 -23 -54 -25 -85 -9
-25 14 -37 28 -37 47 0 9 30 12 115 12 l115 0 0 55 c0 31 -6 71 -14 89 -31 74
-138 107 -222 68z m130 -94 c9 -12 16 -26 16 -30 0 -5 -31 -8 -70 -8 -54 0
-70 3 -70 14 0 47 96 65 124 24z"/>
<path d="M8531 518 c-19 -5 -42 -15 -52 -21 -15 -11 -15 -16 -2 -49 15 -37 15
-37 43 -23 16 8 52 15 79 15 39 0 53 -4 61 -19 18 -35 12 -40 -44 -34 -128 13
-205 -68 -162 -170 20 -50 70 -72 141 -63 27 4 76 7 108 6 l57 -1 0 141 c0
104 -4 148 -15 169 -26 52 -127 75 -214 49z m117 -214 c25 -7 29 -35 9 -53
-39 -32 -117 -20 -117 19 0 33 50 49 108 34z"/>
<path d="M8997 523 c-4 -3 -34 -5 -67 -4 l-60 2 0 -180 0 -181 50 0 50 0 0
118 c0 147 6 158 77 149 l51 -6 5 37 c4 29 0 41 -15 55 -20 17 -78 24 -91 10z"/>
<path d="M9651 508 c-62 -32 -86 -81 -86 -173 0 -117 49 -175 154 -183 48 -3
67 0 100 19 46 26 51 43 20 75 -21 22 -21 22 -53 3 -40 -24 -67 -24 -100 2
-52 41 -37 49 89 49 l115 0 0 58 c0 104 -49 162 -142 169 -41 3 -63 -1 -97
-19z m133 -90 c9 -12 16 -26 16 -30 0 -5 -31 -8 -70 -8 -74 0 -84 8 -53 42 24
27 87 24 107 -4z"/>
<path d="M10398 516 c-16 -8 -28 -11 -28 -5 0 5 -20 9 -45 9 l-45 0 0 -250 c0
-137 2 -250 5 -250 2 0 23 7 45 16 l40 16 0 65 0 64 22 -15 c53 -37 144 -9
183 56 30 50 29 189 -3 239 -38 61 -115 85 -174 55z m79 -98 c19 -18 23 -32
23 -80 0 -66 -21 -98 -67 -98 -47 0 -63 25 -63 101 0 59 3 70 22 83 31 22 58
20 85 -6z"/>
<path d="M10975 514 c-55 -20 -59 -26 -41 -68 l15 -37 30 16 c36 18 112 20
129 3 7 -7 12 -20 12 -30 0 -15 -7 -16 -50 -11 -66 8 -135 -18 -155 -57 -21
-41 -19 -102 5 -132 28 -36 71 -51 127 -44 26 3 76 6 111 5 l62 0 0 133 c0
154 -12 192 -70 220 -42 22 -120 22 -175 2z m129 -210 c9 -3 16 -16 16 -28 0
-40 -83 -62 -114 -30 -9 8 -16 19 -16 24 0 31 69 51 114 34z"/>
<path d="M11403 514 c-41 -21 -62 -44 -79 -91 -33 -94 -4 -204 66 -251 30 -20
45 -23 98 -20 56 4 66 8 96 38 19 19 37 45 40 56 6 19 1 23 -36 32 -38 10 -44
9 -64 -14 -51 -54 -114 -11 -114 78 0 83 66 127 113 74 20 -23 22 -23 63 -9
47 16 49 28 10 72 -44 49 -131 65 -193 35z"/>
<path d="M11804 516 c-65 -29 -98 -102 -92 -202 4 -71 23 -104 78 -141 55 -38
170 -26 209 21 12 15 11 20 -14 46 -26 27 -30 28 -45 15 -40 -36 -114 -23
-131 23 l-8 22 119 0 120 0 0 53 c-1 78 -29 133 -82 157 -50 23 -110 25 -154
6z m124 -88 c7 -7 12 -20 12 -30 0 -15 -9 -18 -65 -18 -56 0 -65 3 -65 18 0
29 21 42 65 42 23 0 46 -5 53 -12z"/>
<path d="M870 513 c1 -4 22 -84 49 -178 l48 -170 44 -3 45 -3 24 101 c13 55
26 100 30 100 4 0 17 -45 30 -100 l24 -101 45 3 44 3 48 170 c27 94 48 174 49
178 0 4 -21 7 -47 5 l-48 -3 -13 -60 c-7 -33 -18 -78 -24 -100 l-11 -40 -26
100 -27 100 -45 3 -45 3 -24 -100 c-13 -56 -26 -99 -28 -96 -3 2 -15 46 -27
97 l-22 93 -47 3 c-25 2 -46 -1 -46 -5z"/>
<path d="M3575 453 c14 -38 45 -117 68 -177 l41 -109 -26 -74 -27 -74 51 3 50
3 94 245 c52 135 94 246 94 247 0 2 -22 3 -48 3 l-49 0 -43 -116 -44 -116 -44
116 -45 116 -48 0 -49 0 25 -67z"/>
</g>
</svg>
