<svg xmlns="http://www.w3.org/2000/svg" width="40" height="40" viewBox="0 0 40 40"><defs><style>.a{fill:#50abf1;}.b{fill:#fff;}</style></defs><rect class="a" width="40" height="40"/><path class="b" d="M60.36,117.262a17.221,17.221,0,0,0,26.424-14.553q0-.356-.014-.708a13.531,13.531,0,0,0,2.993-3.072,13.967,13.967,0,0,1-3.418.887h-.011l.009-.006c.156-.1,2.334-1.587,2.629-3.353a20.977,20.977,0,0,1-2.933,1.223c-.283.094-.58.187-.885.272a6.042,6.042,0,0,0-10.3,5.5,18.2,18.2,0,0,1-12.4-6.269s-2.888,3.942,1.721,8a6.208,6.208,0,0,1-2.61-.778,5.742,5.742,0,0,0,4.775,6,5.528,5.528,0,0,1-2.665.112,5.956,5.956,0,0,0,5.553,4.22,11.6,11.6,0,0,1-8.872,2.535Z" transform="translate(-55.06 -87.611)"/></svg>