<svg class="svg-inline--fa fa-circle-h fa-2xl" aria-hidden="true" focusable="false" data-prefix="fad" data-icon="circle-h" role="img" xmlns="http://www.w3.org/2000/svg" viewBox="0 0 512 512" data-fa-i2svg=""><g class="fa-duotone-group"><path class="fa-secondary" style="opacity:0.4" fill="currentColor" d="M256 512A256 256 0 1 0 256 0a256 256 0 1 0 0 512zM368 152V256 360c0 13.3-10.7 24-24 24s-24-10.7-24-24V280H192l0 80c0 13.3-10.7 24-24 24s-24-10.7-24-24l0-208c0-13.3 10.7-24 24-24s24 10.7 24 24v80H320V152c0-13.3 10.7-24 24-24s24 10.7 24 24z"></path><path class="fa-primary" fill="currentColor" d="M344 128c13.3 0 24 10.7 24 24l0 104V360c0 13.3-10.7 24-24 24s-24-10.7-24-24V280H192l0 80c0 13.3-10.7 24-24 24s-24-10.7-24-24l0-208c0-13.3 10.7-24 24-24s24 10.7 24 24l0 80 128 0 0-80c0-13.3 10.7-24 24-24z"></path></g></svg>