<svg class="svg-inline--fa fa-circle-l fa-2xl" aria-hidden="true" focusable="false" data-prefix="fad" data-icon="circle-l" role="img" xmlns="http://www.w3.org/2000/svg" viewBox="0 0 512 512" data-fa-i2svg=""><g class="fa-duotone-group"><path class="fa-secondary" style="opacity:0.4" fill="currentColor" d="M256 512A256 256 0 1 0 256 0a256 256 0 1 0 0 512zM208 152V336H328c13.3 0 24 10.7 24 24s-10.7 24-24 24H184c-13.3 0-24-10.7-24-24V152c0-13.3 10.7-24 24-24s24 10.7 24 24z"></path><path class="fa-primary" fill="currentColor" d="M184 128c13.3 0 24 10.7 24 24V336H328c13.3 0 24 10.7 24 24s-10.7 24-24 24H184c-13.3 0-24-10.7-24-24V152c0-13.3 10.7-24 24-24z"></path></g></svg>